# MagicaVoxel @ Ephtracy

# group
o 

# material
mtllib wall.mtl
usemtl palette

# normals
vn -1 0 0
vn 1 0 0
vn 0 0 1
vn 0 0 -1
vn 0 -1 0
vn 0 1 0

# texcoords
vt 0.982422 0.5
vt 0.990234 0.5

# verts
v -0.8 1.2 0
v -0.8 1.2 -0.1
v -0.8 1.3 0
v -0.8 1.3 -0.1
v -0.8 1.6 0
v -0.8 1.6 -0.1
v -0.8 1.7 0
v -0.8 1.7 -0.1
v -0.8 2 0
v -0.8 2 -0.1
v -0.8 2.1 0
v -0.8 2.1 -0.1
v -0.8 2.4 0
v -0.8 2.4 -0.1
v -0.8 2.8 0
v -0.8 2.8 -0.1
v 0.8 1.2 0
v 0.8 1.2 -0.1
v 0.8 1.3 0
v 0.8 1.3 -0.1
v 0.8 1.6 0
v 0.8 1.6 -0.1
v 0.8 1.7 0
v 0.8 1.7 -0.1
v 0.8 2 0
v 0.8 2 -0.1
v 0.8 2.5 0
v 0.8 2.5 -0.1
v 0.8 2.8 0
v 0.8 2.8 -0.1
v -0.8 1.2 0
v -0.8 1.3 0
v -0.8 1.6 0
v -0.8 1.7 0
v -0.8 2 0
v -0.8 2.1 0
v -0.8 2.4 0
v -0.8 2.8 0
v -0.7 1.3 0
v -0.7 1.6 0
v -0.7 2.5 0
v -0.7 2.8 0
v -0.6 1.3 0
v -0.6 1.6 0
v -0.6 1.7 0
v -0.6 2 0
v -0.5 1.7 0
v -0.5 2 0
v -0.5 2.1 0
v -0.5 2.4 0
v -0.4 2.1 0
v -0.4 2.4 0
v -0.4 2.5 0
v -0.4 2.8 0
v -0.3 1.3 0
v -0.3 1.6 0
v -0.3 2.5 0
v -0.3 2.8 0
v -0.2 1.3 0
v -0.2 1.6 0
v -0.2 1.7 0
v -0.2 2 0
v -0.1 1.7 0
v -0.1 2 0
v -0.1 2.1 0
v -0.1 2.4 0
v 0 2.1 0
v 0 2.4 0
v 0 2.5 0
v 0 2.8 0
v 0.1 1.3 0
v 0.1 1.6 0
v 0.1 2.5 0
v 0.1 2.8 0
v 0.2 1.3 0
v 0.2 1.6 0
v 0.2 1.7 0
v 0.2 2 0
v 0.3 1.7 0
v 0.3 2 0
v 0.3 2.1 0
v 0.3 2.4 0
v 0.4 2.1 0
v 0.4 2.4 0
v 0.4 2.5 0
v 0.4 2.8 0
v 0.5 1.3 0
v 0.5 1.6 0
v 0.5 2.5 0
v 0.5 2.8 0
v 0.6 1.3 0
v 0.6 1.6 0
v 0.6 1.7 0
v 0.6 2 0
v 0.7 1.7 0
v 0.7 2 0
v 0.7 2.1 0
v 0.7 2.4 0
v 0.8 1.2 0
v 0.8 1.3 0
v 0.8 1.6 0
v 0.8 1.7 0
v 0.8 2 0
v 0.8 2.5 0
v 0.8 2.8 0
v -0.8 1.2 -0.1
v -0.8 1.3 -0.1
v -0.8 1.6 -0.1
v -0.8 1.7 -0.1
v -0.8 2 -0.1
v -0.8 2.1 -0.1
v -0.8 2.4 -0.1
v -0.8 2.8 -0.1
v -0.7 1.3 -0.1
v -0.7 1.6 -0.1
v -0.7 2.5 -0.1
v -0.7 2.8 -0.1
v -0.6 1.3 -0.1
v -0.6 1.6 -0.1
v -0.6 1.7 -0.1
v -0.6 2 -0.1
v -0.5 1.7 -0.1
v -0.5 2 -0.1
v -0.5 2.1 -0.1
v -0.5 2.4 -0.1
v -0.4 2.1 -0.1
v -0.4 2.4 -0.1
v -0.4 2.5 -0.1
v -0.4 2.8 -0.1
v -0.3 1.3 -0.1
v -0.3 1.6 -0.1
v -0.3 2.5 -0.1
v -0.3 2.8 -0.1
v -0.2 1.3 -0.1
v -0.2 1.6 -0.1
v -0.2 1.7 -0.1
v -0.2 2 -0.1
v -0.1 1.7 -0.1
v -0.1 2 -0.1
v -0.1 2.1 -0.1
v -0.1 2.4 -0.1
v 0 2.1 -0.1
v 0 2.4 -0.1
v 0 2.5 -0.1
v 0 2.8 -0.1
v 0.1 1.3 -0.1
v 0.1 1.6 -0.1
v 0.1 2.5 -0.1
v 0.1 2.8 -0.1
v 0.2 1.3 -0.1
v 0.2 1.6 -0.1
v 0.2 1.7 -0.1
v 0.2 2 -0.1
v 0.3 1.7 -0.1
v 0.3 2 -0.1
v 0.3 2.1 -0.1
v 0.3 2.4 -0.1
v 0.4 2.1 -0.1
v 0.4 2.4 -0.1
v 0.4 2.5 -0.1
v 0.4 2.8 -0.1
v 0.5 1.3 -0.1
v 0.5 1.6 -0.1
v 0.5 2.5 -0.1
v 0.5 2.8 -0.1
v 0.6 1.3 -0.1
v 0.6 1.6 -0.1
v 0.6 1.7 -0.1
v 0.6 2 -0.1
v 0.7 1.7 -0.1
v 0.7 2 -0.1
v 0.7 2.1 -0.1
v 0.7 2.4 -0.1
v 0.8 1.2 -0.1
v 0.8 1.3 -0.1
v 0.8 1.6 -0.1
v 0.8 1.7 -0.1
v 0.8 2 -0.1
v 0.8 2.5 -0.1
v 0.8 2.8 -0.1
v -0.8 1.2 0
v 0.8 1.2 0
v -0.8 1.2 -0.1
v 0.8 1.2 -0.1
v -0.8 2.8 0
v -0.7 2.8 0
v -0.4 2.8 0
v -0.3 2.8 0
v 0 2.8 0
v 0.1 2.8 0
v 0.4 2.8 0
v 0.5 2.8 0
v 0.8 2.8 0
v -0.8 2.8 -0.1
v -0.7 2.8 -0.1
v -0.4 2.8 -0.1
v -0.3 2.8 -0.1
v 0 2.8 -0.1
v 0.1 2.8 -0.1
v 0.4 2.8 -0.1
v 0.5 2.8 -0.1
v 0.8 2.8 -0.1

# faces
f 3/2/1 2/2/1 1/2/1
f 4/2/1 2/2/1 3/2/1
f 5/1/1 4/1/1 3/1/1
f 6/1/1 4/1/1 5/1/1
f 7/2/1 6/2/1 5/2/1
f 8/2/1 6/2/1 7/2/1
f 9/1/1 8/1/1 7/1/1
f 10/1/1 8/1/1 9/1/1
f 11/2/1 10/2/1 9/2/1
f 12/2/1 10/2/1 11/2/1
f 13/1/1 12/1/1 11/1/1
f 14/1/1 12/1/1 13/1/1
f 15/2/1 14/2/1 13/2/1
f 16/2/1 14/2/1 15/2/1
f 17/2/2 18/2/2 19/2/2
f 19/2/2 18/2/2 20/2/2
f 19/1/2 20/1/2 21/1/2
f 21/1/2 20/1/2 22/1/2
f 21/2/2 22/2/2 23/2/2
f 23/2/2 22/2/2 24/2/2
f 23/1/2 24/1/2 25/1/2
f 25/1/2 24/1/2 26/1/2
f 25/2/2 26/2/2 27/2/2
f 27/2/2 26/2/2 28/2/2
f 27/1/2 28/1/2 29/1/2
f 29/1/2 28/1/2 30/1/2
f 39/2/3 32/2/3 31/2/3
f 39/1/3 33/1/3 32/1/3
f 40/2/3 34/2/3 33/2/3
f 40/1/3 33/1/3 39/1/3
f 41/2/3 38/2/3 37/2/3
f 42/2/3 38/2/3 41/2/3
f 43/2/3 39/2/3 31/2/3
f 43/2/3 40/2/3 39/2/3
f 44/2/3 34/2/3 40/2/3
f 44/2/3 40/2/3 43/2/3
f 45/1/3 35/1/3 34/1/3
f 45/2/3 34/2/3 44/2/3
f 46/2/3 36/2/3 35/2/3
f 46/1/3 35/1/3 45/1/3
f 47/2/3 45/2/3 44/2/3
f 47/2/3 46/2/3 45/2/3
f 48/2/3 36/2/3 46/2/3
f 48/2/3 46/2/3 47/2/3
f 49/1/3 37/1/3 36/1/3
f 49/2/3 36/2/3 48/2/3
f 50/2/3 41/2/3 37/2/3
f 50/1/3 37/1/3 49/1/3
f 51/2/3 49/2/3 48/2/3
f 51/2/3 50/2/3 49/2/3
f 52/2/3 41/2/3 50/2/3
f 52/2/3 50/2/3 51/2/3
f 53/1/3 42/1/3 41/1/3
f 53/2/3 41/2/3 52/2/3
f 54/1/3 42/1/3 53/1/3
f 55/2/3 43/2/3 31/2/3
f 55/1/3 44/1/3 43/1/3
f 56/2/3 47/2/3 44/2/3
f 56/1/3 44/1/3 55/1/3
f 57/2/3 54/2/3 53/2/3
f 57/2/3 53/2/3 52/2/3
f 58/2/3 54/2/3 57/2/3
f 59/2/3 55/2/3 31/2/3
f 59/2/3 56/2/3 55/2/3
f 60/2/3 47/2/3 56/2/3
f 60/2/3 56/2/3 59/2/3
f 61/1/3 48/1/3 47/1/3
f 61/2/3 47/2/3 60/2/3
f 62/2/3 51/2/3 48/2/3
f 62/1/3 48/1/3 61/1/3
f 63/2/3 61/2/3 60/2/3
f 63/2/3 62/2/3 61/2/3
f 64/2/3 51/2/3 62/2/3
f 64/2/3 62/2/3 63/2/3
f 65/1/3 52/1/3 51/1/3
f 65/2/3 51/2/3 64/2/3
f 66/2/3 57/2/3 52/2/3
f 66/1/3 52/1/3 65/1/3
f 67/2/3 65/2/3 64/2/3
f 67/2/3 66/2/3 65/2/3
f 68/2/3 57/2/3 66/2/3
f 68/2/3 66/2/3 67/2/3
f 69/1/3 58/1/3 57/1/3
f 69/2/3 57/2/3 68/2/3
f 70/1/3 58/1/3 69/1/3
f 71/1/3 60/1/3 59/1/3
f 71/2/3 59/2/3 31/2/3
f 72/2/3 63/2/3 60/2/3
f 72/1/3 60/1/3 71/1/3
f 73/2/3 70/2/3 69/2/3
f 73/2/3 69/2/3 68/2/3
f 74/2/3 70/2/3 73/2/3
f 75/2/3 71/2/3 31/2/3
f 75/2/3 72/2/3 71/2/3
f 76/2/3 63/2/3 72/2/3
f 76/2/3 72/2/3 75/2/3
f 77/1/3 64/1/3 63/1/3
f 77/2/3 63/2/3 76/2/3
f 78/2/3 67/2/3 64/2/3
f 78/1/3 64/1/3 77/1/3
f 79/2/3 77/2/3 76/2/3
f 79/2/3 78/2/3 77/2/3
f 80/2/3 67/2/3 78/2/3
f 80/2/3 78/2/3 79/2/3
f 81/1/3 68/1/3 67/1/3
f 81/2/3 67/2/3 80/2/3
f 82/2/3 73/2/3 68/2/3
f 82/1/3 68/1/3 81/1/3
f 83/2/3 81/2/3 80/2/3
f 83/2/3 82/2/3 81/2/3
f 84/2/3 73/2/3 82/2/3
f 84/2/3 82/2/3 83/2/3
f 85/1/3 74/1/3 73/1/3
f 85/2/3 73/2/3 84/2/3
f 86/1/3 74/1/3 85/1/3
f 87/2/3 75/2/3 31/2/3
f 87/1/3 76/1/3 75/1/3
f 88/2/3 79/2/3 76/2/3
f 88/1/3 76/1/3 87/1/3
f 89/2/3 86/2/3 85/2/3
f 89/2/3 85/2/3 84/2/3
f 90/2/3 86/2/3 89/2/3
f 91/2/3 87/2/3 31/2/3
f 91/2/3 88/2/3 87/2/3
f 92/2/3 79/2/3 88/2/3
f 92/2/3 88/2/3 91/2/3
f 93/1/3 80/1/3 79/1/3
f 93/2/3 79/2/3 92/2/3
f 94/2/3 83/2/3 80/2/3
f 94/1/3 80/1/3 93/1/3
f 95/2/3 93/2/3 92/2/3
f 95/2/3 94/2/3 93/2/3
f 96/2/3 83/2/3 94/2/3
f 96/2/3 94/2/3 95/2/3
f 97/1/3 84/1/3 83/1/3
f 97/2/3 83/2/3 96/2/3
f 98/2/3 89/2/3 84/2/3
f 98/1/3 84/1/3 97/1/3
f 99/2/3 91/2/3 31/2/3
f 100/1/3 92/1/3 91/1/3
f 100/2/3 91/2/3 99/2/3
f 101/2/3 95/2/3 92/2/3
f 101/1/3 92/1/3 100/1/3
f 102/1/3 96/1/3 95/1/3
f 102/2/3 95/2/3 101/2/3
f 103/2/3 97/2/3 96/2/3
f 103/1/3 96/1/3 102/1/3
f 103/2/3 98/2/3 97/2/3
f 104/2/3 89/2/3 98/2/3
f 104/2/3 98/2/3 103/2/3
f 104/1/3 90/1/3 89/1/3
f 105/1/3 90/1/3 104/1/3
f 106/2/4 107/2/4 114/2/4
f 107/1/4 108/1/4 114/1/4
f 108/2/4 109/2/4 115/2/4
f 114/1/4 108/1/4 115/1/4
f 112/2/4 113/2/4 116/2/4
f 116/2/4 113/2/4 117/2/4
f 106/2/4 114/2/4 118/2/4
f 114/2/4 115/2/4 118/2/4
f 115/2/4 109/2/4 119/2/4
f 118/2/4 115/2/4 119/2/4
f 109/1/4 110/1/4 120/1/4
f 119/2/4 109/2/4 120/2/4
f 110/2/4 111/2/4 121/2/4
f 120/1/4 110/1/4 121/1/4
f 119/2/4 120/2/4 122/2/4
f 120/2/4 121/2/4 122/2/4
f 121/2/4 111/2/4 123/2/4
f 122/2/4 121/2/4 123/2/4
f 111/1/4 112/1/4 124/1/4
f 123/2/4 111/2/4 124/2/4
f 112/2/4 116/2/4 125/2/4
f 124/1/4 112/1/4 125/1/4
f 123/2/4 124/2/4 126/2/4
f 124/2/4 125/2/4 126/2/4
f 125/2/4 116/2/4 127/2/4
f 126/2/4 125/2/4 127/2/4
f 116/1/4 117/1/4 128/1/4
f 127/2/4 116/2/4 128/2/4
f 128/1/4 117/1/4 129/1/4
f 106/2/4 118/2/4 130/2/4
f 118/1/4 119/1/4 130/1/4
f 119/2/4 122/2/4 131/2/4
f 130/1/4 119/1/4 131/1/4
f 128/2/4 129/2/4 132/2/4
f 127/2/4 128/2/4 132/2/4
f 132/2/4 129/2/4 133/2/4
f 106/2/4 130/2/4 134/2/4
f 130/2/4 131/2/4 134/2/4
f 131/2/4 122/2/4 135/2/4
f 134/2/4 131/2/4 135/2/4
f 122/1/4 123/1/4 136/1/4
f 135/2/4 122/2/4 136/2/4
f 123/2/4 126/2/4 137/2/4
f 136/1/4 123/1/4 137/1/4
f 135/2/4 136/2/4 138/2/4
f 136/2/4 137/2/4 138/2/4
f 137/2/4 126/2/4 139/2/4
f 138/2/4 137/2/4 139/2/4
f 126/1/4 127/1/4 140/1/4
f 139/2/4 126/2/4 140/2/4
f 127/2/4 132/2/4 141/2/4
f 140/1/4 127/1/4 141/1/4
f 139/2/4 140/2/4 142/2/4
f 140/2/4 141/2/4 142/2/4
f 141/2/4 132/2/4 143/2/4
f 142/2/4 141/2/4 143/2/4
f 132/1/4 133/1/4 144/1/4
f 143/2/4 132/2/4 144/2/4
f 144/1/4 133/1/4 145/1/4
f 134/1/4 135/1/4 146/1/4
f 106/2/4 134/2/4 146/2/4
f 135/2/4 138/2/4 147/2/4
f 146/1/4 135/1/4 147/1/4
f 144/2/4 145/2/4 148/2/4
f 143/2/4 144/2/4 148/2/4
f 148/2/4 145/2/4 149/2/4
f 106/2/4 146/2/4 150/2/4
f 146/2/4 147/2/4 150/2/4
f 147/2/4 138/2/4 151/2/4
f 150/2/4 147/2/4 151/2/4
f 138/1/4 139/1/4 152/1/4
f 151/2/4 138/2/4 152/2/4
f 139/2/4 142/2/4 153/2/4
f 152/1/4 139/1/4 153/1/4
f 151/2/4 152/2/4 154/2/4
f 152/2/4 153/2/4 154/2/4
f 153/2/4 142/2/4 155/2/4
f 154/2/4 153/2/4 155/2/4
f 142/1/4 143/1/4 156/1/4
f 155/2/4 142/2/4 156/2/4
f 143/2/4 148/2/4 157/2/4
f 156/1/4 143/1/4 157/1/4
f 155/2/4 156/2/4 158/2/4
f 156/2/4 157/2/4 158/2/4
f 157/2/4 148/2/4 159/2/4
f 158/2/4 157/2/4 159/2/4
f 148/1/4 149/1/4 160/1/4
f 159/2/4 148/2/4 160/2/4
f 160/1/4 149/1/4 161/1/4
f 106/2/4 150/2/4 162/2/4
f 150/1/4 151/1/4 162/1/4
f 151/2/4 154/2/4 163/2/4
f 162/1/4 151/1/4 163/1/4
f 160/2/4 161/2/4 164/2/4
f 159/2/4 160/2/4 164/2/4
f 164/2/4 161/2/4 165/2/4
f 106/2/4 162/2/4 166/2/4
f 162/2/4 163/2/4 166/2/4
f 163/2/4 154/2/4 167/2/4
f 166/2/4 163/2/4 167/2/4
f 154/1/4 155/1/4 168/1/4
f 167/2/4 154/2/4 168/2/4
f 155/2/4 158/2/4 169/2/4
f 168/1/4 155/1/4 169/1/4
f 167/2/4 168/2/4 170/2/4
f 168/2/4 169/2/4 170/2/4
f 169/2/4 158/2/4 171/2/4
f 170/2/4 169/2/4 171/2/4
f 158/1/4 159/1/4 172/1/4
f 171/2/4 158/2/4 172/2/4
f 159/2/4 164/2/4 173/2/4
f 172/1/4 159/1/4 173/1/4
f 106/2/4 166/2/4 174/2/4
f 166/1/4 167/1/4 175/1/4
f 174/2/4 166/2/4 175/2/4
f 167/2/4 170/2/4 176/2/4
f 175/1/4 167/1/4 176/1/4
f 170/1/4 171/1/4 177/1/4
f 176/2/4 170/2/4 177/2/4
f 171/2/4 172/2/4 178/2/4
f 177/1/4 171/1/4 178/1/4
f 172/2/4 173/2/4 178/2/4
f 173/2/4 164/2/4 179/2/4
f 178/2/4 173/2/4 179/2/4
f 164/1/4 165/1/4 179/1/4
f 179/1/4 165/1/4 180/1/4
f 183/2/5 182/2/5 181/2/5
f 184/2/5 182/2/5 183/2/5
f 185/2/6 186/2/6 194/2/6
f 186/1/6 187/1/6 195/1/6
f 194/2/6 186/2/6 195/2/6
f 187/2/6 188/2/6 196/2/6
f 195/1/6 187/1/6 196/1/6
f 188/1/6 189/1/6 197/1/6
f 196/2/6 188/2/6 197/2/6
f 189/2/6 190/2/6 198/2/6
f 197/1/6 189/1/6 198/1/6
f 190/1/6 191/1/6 199/1/6
f 198/2/6 190/2/6 199/2/6
f 191/2/6 192/2/6 200/2/6
f 199/1/6 191/1/6 200/1/6
f 192/1/6 193/1/6 201/1/6
f 200/2/6 192/2/6 201/2/6
f 201/1/6 193/1/6 202/1/6
